Genre:Horror | Thriller
Language:English
IMDb:http://www.imdb.com/title/tt1260567/
Source:DVD

General
Complete name :Dark.House.2009.DvDRip.XviD.Feel-Free
Format : AVI
Format/Info : Audio Video Interleave
File size : 1.10 GiB
Duration : 1h 25mn
Overall bit rate : 1 844 Kbps
Video #0
Muxing mode : Packed bitstream
Codec ID : XVID
Codec ID/Hint : XviD
Duration : 1h 25mn
Bit rate : 1 578 Kbps
Width : 720 pixels
Height : 304 pixels
Display aspect ratio : 2.35:1
Frame rate : 23.976 fps
Resolution : 24 bits
Colorimetry : 4:2:0
Scan type : Progressive
Bits/(Pixel*Frame) : 0.301
Stream size : 963 MiB (86%)
Writing library : XviD 1.2.1 (UTC 2008-12-04)
Audio #1
ID : 1
Format : MPEG Audio
Format version : Version 1
Format profile : Layer 3
Codec ID : 55
Codec ID/Hint : MP3
Duration : 1h 25mn
Bit rate mode : Constant
Bit rate : 256 Kbps
Channel(s) : 2 channels
Sampling rate : 44.1 KHz
Resolution : 16 bits
Stream size : 156 MiB (14%)
Alignment : Split accross interleaves
Interleave, duration : 36 ms (0.86 video frame)
Interleave, preload duration : 504 ms
Writing library : LAME3.98.2


Plot:
A troupe of actors hired for a haunted house attraction soon find that they are working in a true house of horror
